<svg width="39" height="42" viewBox="0 0 39 42" fill="none" xmlns="http://www.w3.org/2000/svg">
<path fill-rule="evenodd" clip-rule="evenodd" d="M38.1504 18.5033C38.1504 8.71681 29.5462 0.650391 19.4004 0.650391C9.25456 0.650391 0.650391 8.71681 0.650391 18.5053C0.650391 28.4819 9.40664 35.3782 17.4691 40.1645C18.0587 40.483 18.7238 40.6504 19.4004 40.6504C20.0769 40.6504 20.7421 40.483 21.3316 40.1645C29.4066 35.4222 38.1504 28.4438 38.1504 18.5033ZM26.137 21.3303C26.5035 20.4809 26.6921 19.5706 26.6921 18.6513C26.6921 16.7947 25.9238 15.0142 24.5564 13.7013C23.1889 12.3885 21.3343 11.651 19.4004 11.651C17.4665 11.651 15.6119 12.3885 14.2444 13.7013C12.877 15.0142 12.1087 16.7947 12.1087 18.6513C12.1087 19.5706 12.2973 20.4809 12.6638 21.3303C13.0302 22.1796 13.5673 22.9513 14.2444 23.6013C14.9215 24.2514 15.7253 24.767 16.61 25.1188C17.4947 25.4706 18.4428 25.6517 19.4004 25.6517C20.3579 25.6517 21.3061 25.4706 22.1908 25.1188C23.0755 24.767 23.8793 24.2514 24.5564 23.6013C25.2335 22.9513 25.7706 22.1796 26.137 21.3303Z" fill="#FF9900" stroke="#FF9900" stroke-width="1.3"/>
</svg>
