<svg width="24" height="24" viewBox="0 0 24 24" xmlns="http://www.w3.org/2000/svg">
<path d="M23.3615 21.1497L14.0592 11.86L23.3615 2.67591C23.4672 2.57034 23.5729 2.46478 23.6786 2.35921C23.9957 1.93695 24.1014 1.40913 23.89 0.986869C23.6786 0.56461 23.3615 0.142351 22.8329 0.0367861C22.3044 -0.0687787 21.7758 0.0367861 21.2473 0.56461L11.945 9.85431L5.2854 3.20373C4.43974 2.35921 3.48836 1.40913 2.6427 0.56461C2.21987 0.0367861 1.69133 -0.0687787 1.16279 0.0367861C0.634248 0.142351 0.211416 0.56461 0 1.09243V1.83139C0.105708 2.25365 0.422832 2.57034 0.739956 2.88704L9.83084 11.9656L0.739956 21.0442C0.422832 21.3609 0.105708 21.6776 0 22.0998V22.7332C0.211416 23.3666 0.52854 23.7889 1.16279 24H1.79704C2.21987 23.8944 2.53699 23.5777 2.85412 23.3666L11.945 14.288L21.0359 23.3666C21.353 23.6833 21.5644 23.8944 21.9873 24H22.6215L22.8329 23.8944C23.3615 23.6833 23.7843 23.1555 23.7843 22.5221C23.89 21.8887 23.6786 21.572 23.3615 21.1497Z" />
</svg>

