<svg width="26" height="26" viewBox="0 0 26 26" fill="none" xmlns="http://www.w3.org/2000/svg">
<path d="M7.33645 14.0031V14.0165M12.6698 19.3365V19.3498M12.6698 12.6698V12.6831M18.0031 15.3365V15.3498M11.3365 7.33645V7.34979M14.2005 1.30445L17.7565 2.77645C17.0517 3.70368 16.6698 4.83611 16.6692 6.00078C16.6685 7.16544 17.0491 8.2983 17.7528 9.22631C18.4566 10.1543 19.4447 10.8265 20.5663 11.1401C21.688 11.4537 22.8815 11.3916 23.9645 10.9631L24.0351 11.1391C24.4411 12.1192 24.4411 13.2204 24.0351 14.2005C23.3729 15.2493 22.9178 16.0725 22.6698 16.6698C22.4182 17.2778 22.1249 18.2627 21.7898 19.6245C21.3835 20.6044 20.6046 21.3828 19.6245 21.7885C18.2271 22.1387 17.2422 22.4325 16.6698 22.6698C16.0369 22.932 15.2138 23.3871 14.2005 24.0351C13.2204 24.4411 12.1192 24.4411 11.1391 24.0351C10.0698 23.3649 9.24668 22.9098 8.66979 22.6698C8.04134 22.4102 7.05645 22.1169 5.71512 21.7898C4.7352 21.3835 3.95679 20.6046 3.55112 19.6245C3.19823 18.2227 2.90445 17.2378 2.66979 16.6698C2.4049 16.0316 1.94979 15.2085 1.30445 14.2005C0.898515 13.2204 0.898515 12.1192 1.30445 11.1391C1.94357 10.1471 2.39868 9.32401 2.66979 8.66979C2.89823 8.11868 3.19157 7.13379 3.54979 5.71512C3.95606 4.7352 4.73495 3.95679 5.71512 3.55112C7.09023 3.20979 8.07512 2.91601 8.66979 2.66979C9.28045 2.41645 10.1036 1.96134 11.1391 1.30445C12.1192 0.898515 13.2204 0.898515 14.2005 1.30445Z" stroke="#FF9900" stroke-width="2" stroke-linecap="round" stroke-linejoin="round"/>
</svg>
