<svg width="15" height="17" viewBox="0 0 15 17" fill="none" xmlns="http://www.w3.org/2000/svg">
<path d="M9.82485 6.03873L9.53127 13.4232M5.46873 13.4232L5.17515 6.03873M13.6328 3.40495C13.9225 3.44762 14.2115 3.49302 14.5 3.54115M13.6328 3.40495L12.7267 14.7958C12.6897 15.2596 12.473 15.6928 12.12 16.0087C11.767 16.3247 11.3037 16.5001 10.8227 16.5H4.17733C3.69632 16.5001 3.23299 16.3247 2.87998 16.0087C2.52698 15.6928 2.31032 15.2596 2.27333 14.7958L1.36715 3.40495M13.6328 3.40495C12.6536 3.26171 11.6693 3.15306 10.6818 3.07922M1.36715 3.40495C1.07754 3.44707 0.788485 3.4922 0.5 3.54033M1.36715 3.40495C2.34641 3.26171 3.33074 3.15306 4.31818 3.07922M10.6818 3.07922V2.32765C10.6818 1.35947 9.9097 0.552104 8.90848 0.521745C7.96973 0.492752 7.03027 0.492752 6.09152 0.521745C5.0903 0.552104 4.31818 1.36029 4.31818 2.32765V3.07922M10.6818 3.07922C8.56372 2.92201 6.43628 2.92201 4.31818 3.07922" stroke="#767676" stroke-linecap="round" stroke-linejoin="round"/>
</svg>
