<svg width="16" height="19" viewBox="0 0 16 19" fill="none" xmlns="http://www.w3.org/2000/svg">
<path d="M4.5988 0.199681C4.43025 0.0734047 4.22612 0.0035693 4.01554 0.000133168C3.80496 -0.00330297 3.59867 0.0598355 3.42608 0.180546C3.2535 0.301256 3.12343 0.473375 3.05442 0.67236C2.98542 0.871345 2.981 1.08704 3.0418 1.28868C3.2166 1.87187 3.23624 2.49057 3.0988 3.08368C2.96182 3.67328 2.67212 4.21646 2.2588 4.65868C2.23125 4.68843 2.20554 4.71982 2.1818 4.75268C1.5858 5.56968 -1.7782 10.3527 1.2408 15.5147L1.2708 15.5637C2.00416 16.6666 3.00861 17.5626 4.1878 18.1657C5.35278 18.7622 6.65206 19.0478 7.9598 18.9947C9.35033 19.019 10.7235 18.6831 11.9458 18.0197C13.1894 17.3434 14.2367 16.3567 14.9858 15.1557C16.2868 12.9557 16.1698 10.5997 15.5738 8.71468C14.9908 6.86668 13.8938 5.30068 12.9668 4.61268C12.8212 4.50483 12.6489 4.43859 12.4686 4.42104C12.2882 4.40349 12.1064 4.43529 11.9427 4.51303C11.779 4.59078 11.6395 4.71155 11.5391 4.86243C11.4387 5.01332 11.3813 5.18865 11.3728 5.36968C11.3058 6.80068 11.0098 7.92068 10.5788 8.80068C10.3568 6.39368 9.4518 4.60468 8.3548 3.27668C7.2078 1.88668 5.7908 0.976681 5.0318 0.488681C4.88507 0.397185 4.74101 0.301478 4.5998 0.201681L4.5988 0.199681Z" fill="#101010"/>
</svg>
