<svg width="17" height="18" viewBox="0 0 17 18" fill="none" xmlns="http://www.w3.org/2000/svg">
<path fill-rule="evenodd" clip-rule="evenodd" d="M15.6499 7.79156C15.6499 3.87696 12.2082 0.650391 8.1499 0.650391C4.09157 0.650391 0.649902 3.87696 0.649902 7.79237C0.649902 11.783 4.1524 14.5415 7.3774 16.456C7.61323 16.5834 7.87929 16.6504 8.1499 16.6504C8.42052 16.6504 8.68657 16.5834 8.9224 16.456C12.1524 14.5591 15.6499 11.7678 15.6499 7.79156ZM10.8446 8.92234C10.9911 8.58261 11.0666 8.21849 11.0666 7.85077C11.0666 7.10812 10.7593 6.3959 10.2123 5.87077C9.66532 5.34564 8.92345 5.05062 8.1499 5.05062C7.37635 5.05062 6.63449 5.34564 6.08751 5.87077C5.54053 6.3959 5.23324 7.10812 5.23324 7.85077C5.23324 8.21849 5.30868 8.58261 5.45525 8.92234C5.60183 9.26207 5.81667 9.57075 6.08751 9.83077C6.35835 10.0908 6.67988 10.297 7.03374 10.4378C7.38761 10.5785 7.76688 10.6509 8.1499 10.6509C8.53292 10.6509 8.9122 10.5785 9.26606 10.4378C9.61993 10.297 9.94146 10.0908 10.2123 9.83077C10.4831 9.57075 10.698 9.26207 10.8446 8.92234Z" stroke="#FF9900" stroke-width="1.3"/>
</svg>
