<svg width="10" height="16" viewBox="0 0 10 16" fill="none" xmlns="http://www.w3.org/2000/svg">
<path d="M9.84882 8.59307C9.61594 8.13702 8.9589 7.75297 8.08561 8.40105C6.89628 9.31316 5 9.31316 5 9.31316C5 9.31316 3.10372 9.31316 1.91439 8.40105C1.0411 7.75297 0.384055 8.13702 0.151178 8.59307C-0.264673 9.39317 0.20108 9.78522 1.25734 10.4333C2.1639 10.9934 3.40313 11.2014 4.20157 11.2814L3.5362 11.9215C2.58806 12.8256 1.67319 13.6977 1.04942 14.3058C0.67515 14.6738 0.67515 15.2579 1.04942 15.602L1.16585 15.73C1.54012 16.09 2.15558 16.09 2.52984 15.73L5 13.3457C5.95646 14.2498 6.86301 15.1219 7.4951 15.73C7.86937 16.09 8.47651 16.09 8.8591 15.73L8.96722 15.602C9.3498 15.2579 9.3498 14.6738 8.96722 14.3058L6.48875 11.9215L5.8317 11.2734C6.62182 11.2014 7.84442 10.9854 8.74266 10.4333C9.79892 9.78522 10.2647 9.39317 9.84882 8.59307ZM5 2.05626C6.14775 2.05626 7.07925 2.95237 7.07925 4.04851C7.07925 5.15264 6.14775 6.04076 5 6.04076C3.85225 6.04076 2.92075 5.15264 2.92075 4.04851C2.92075 2.95237 3.85225 2.05626 5 2.05626ZM5 8.09701C7.32876 8.09701 9.20841 6.28879 9.20841 4.04851C9.20841 2.97478 8.76503 1.94502 7.9758 1.18578C7.18656 0.426538 6.11614 0 5 0C3.88386 0 2.81343 0.426538 2.0242 1.18578C1.23497 1.94502 0.791589 2.97478 0.791589 4.04851C0.791589 6.28879 2.67123 8.09701 5 8.09701Z" fill="white"/>
</svg>
