<svg width="17" height="18" viewBox="0 0 17 18" fill="none" xmlns="http://www.w3.org/2000/svg">
<path d="M2.24321 7.35351L4.44321 5.00684C4.66178 4.7698 4.81638 4.47429 4.89073 4.15141C4.96509 3.82854 4.95644 3.49025 4.86571 3.17217C4.71154 2.6311 4.57534 2.08439 4.45738 1.53306C4.36071 1.05039 3.96321 0.650391 3.49988 0.650391H2.24321C1.31821 0.650391 0.557372 1.45395 0.659039 2.43528C1.43071 9.89485 6.98405 15.8175 13.9766 16.6406C14.8966 16.7491 15.6499 15.9384 15.6499 14.9517V13.6095C15.6499 13.1171 15.2732 12.7117 14.8182 12.6229C14.3181 12.5191 13.8244 12.3829 13.3399 12.2149C12.7007 11.998 11.9907 12.1509 11.5166 12.6557L9.36572 14.9509" stroke="#FF9900" stroke-width="1.3" stroke-linecap="round" stroke-linejoin="round"/>
</svg>
