<svg width="11" height="9" viewBox="0 0 11 9" fill="none" xmlns="http://www.w3.org/2000/svg">
<path d="M10.4434 0.046875C10.4817 0.046298 10.5451 0.0512963 10.6133 0.0673828C10.682 0.0836109 10.7521 0.110595 10.8057 0.15332C10.8929 0.224238 10.9189 0.320433 10.9326 0.395508C10.9418 0.452442 10.9536 0.563255 10.9531 0.670898L10.9482 0.776367C10.7965 2.35518 10.1364 6.19065 9.80078 7.96191C9.66084 8.70613 9.38866 8.9277 9.15137 8.94922C8.87062 8.9747 8.62143 8.88361 8.36914 8.7373C8.24299 8.66413 8.1173 8.5772 7.98633 8.48535C7.8557 8.39375 7.71951 8.29684 7.57617 8.2041C7.13101 7.91583 6.78289 7.68146 6.4375 7.44922C6.09218 7.21703 5.74948 6.98669 5.31641 6.70508C5.0689 6.54409 4.92969 6.40485 4.86426 6.28125C4.80081 6.16123 4.80471 6.05237 4.85352 5.94238C4.90392 5.82904 5.00209 5.71429 5.12695 5.58887C5.18907 5.52649 5.25659 5.46173 5.32715 5.39453C5.39745 5.32757 5.47114 5.25824 5.54297 5.18457C5.61634 5.10913 6.29894 4.49136 6.97363 3.8623C7.31013 3.54857 7.64368 3.23223 7.89648 2.98145C8.02282 2.85611 8.12931 2.74624 8.20605 2.66113C8.24431 2.6187 8.27596 2.58195 8.29883 2.55176C8.31026 2.53667 8.31961 2.52235 8.32715 2.50977C8.3342 2.498 8.34151 2.48454 8.34473 2.4707C8.34932 2.45133 8.35265 2.41392 8.34668 2.37402C8.34063 2.33394 8.32402 2.2841 8.28223 2.24805H8.2832C8.2425 2.21189 8.19307 2.20249 8.14941 2.20215C8.10659 2.20182 8.06442 2.21084 8.0332 2.21777C8.02047 2.2206 8.0032 2.22856 7.98828 2.23633C7.97134 2.24516 7.9493 2.25701 7.92285 2.27246C7.86928 2.30375 7.79494 2.34976 7.7002 2.40918C7.51066 2.52806 7.2377 2.70331 6.88184 2.93555C6.16962 3.40034 5.12332 4.09241 3.74316 5.01172V5.0127C3.34399 5.28372 2.98762 5.41202 2.67188 5.40527C2.49716 5.40152 2.23743 5.35232 1.9541 5.28223C1.67155 5.21231 1.36849 5.12183 1.11035 5.03906C0.790352 4.93617 0.511353 4.86032 0.31543 4.7666C0.218089 4.72002 0.146159 4.67132 0.101562 4.61719C0.0585755 4.56493 0.0394678 4.50565 0.0488281 4.43262C0.0575217 4.36213 0.113129 4.28101 0.235352 4.19141C0.356289 4.10276 0.535306 4.01146 0.773438 3.91797H0.774414C3.72779 2.64797 5.69662 1.81061 6.68066 1.40625C8.08776 0.828651 8.93619 0.489907 9.48047 0.294922C10.0255 0.0996619 10.2609 0.0501254 10.4434 0.046875Z" fill="white" stroke="#FF9900" stroke-width="0.09375"/>
</svg>
