<svg width="18" height="18" viewBox="0 0 18 18" fill="none" xmlns="http://www.w3.org/2000/svg">
<path d="M8.45347 4.52286L7.86383 3.93321M10.0256 6.09501L9.63241 5.70215M11.5978 7.66752L11.2049 7.2743M13.3667 9.4361L12.7771 8.84645M12.5803 4.72143C12.2832 4.42422 12.1092 4.0258 12.0932 3.60586C12.0772 3.18592 12.2203 2.7754 12.4939 2.45642C12.5165 2.42989 12.5282 2.39579 12.5268 2.36095C12.5253 2.32611 12.5108 2.29311 12.486 2.26856L10.9099 0.690693C10.8839 0.664653 10.8485 0.650024 10.8117 0.650024C10.7749 0.650024 10.7395 0.664653 10.7135 0.690693L8.20133 3.20285C8.10862 3.2955 8.03879 3.40849 7.9974 3.53285C7.95614 3.65749 7.8864 3.77079 7.79372 3.86379C7.70104 3.95678 7.58797 4.02689 7.46347 4.06857C7.33904 4.11003 7.22594 4.17984 7.13311 4.2725L0.690571 10.7136C0.664531 10.7397 0.649902 10.775 0.649902 10.8118C0.649902 10.8487 0.664531 10.884 0.690571 10.91L2.26665 12.4861C2.2912 12.5109 2.3242 12.5255 2.35904 12.5269C2.39388 12.5284 2.42798 12.5166 2.45451 12.494C2.77343 12.2201 3.18403 12.0768 3.60412 12.0927C4.02421 12.1086 4.42278 12.2826 4.72004 12.5799C5.0173 12.8771 5.19131 13.2757 5.20724 13.6958C5.22317 14.1159 5.07985 14.5265 4.80595 14.8454C4.78332 14.8719 4.77156 14.906 4.77301 14.9409C4.77447 14.9757 4.78904 15.0087 4.81381 15.0333L6.38989 16.6094C6.41594 16.6354 6.45127 16.65 6.4881 16.65C6.52494 16.65 6.56027 16.6354 6.58632 16.6094L13.0292 10.1668C13.1219 10.074 13.1917 9.96089 13.2331 9.83646C13.2744 9.71182 13.3441 9.59852 13.4368 9.50553C13.5295 9.41254 13.6426 9.34242 13.7671 9.30074C13.8914 9.25935 14.0044 9.18952 14.0971 9.09681L16.6092 6.58465C16.6353 6.5586 16.6499 6.52328 16.6499 6.48644C16.6499 6.4496 16.6353 6.41428 16.6092 6.38823L15.0332 4.81214C15.0086 4.78738 14.9756 4.77281 14.9408 4.77135C14.9059 4.76989 14.8718 4.78166 14.8453 4.80429C14.5267 5.07835 14.1165 5.22207 13.6966 5.20671C13.2766 5.19135 12.878 5.01804 12.5803 4.72143Z" stroke="#FF9900" stroke-width="1.3" stroke-miterlimit="10" stroke-linecap="round"/>
</svg>
