
<svg version="1.1" id="Слой_1" xmlns="http://www.w3.org/2000/svg" xmlns:xlink="http://www.w3.org/1999/xlink" x="0px" y="0px"
	 viewBox="0 0 42.2 36" style="enable-background:new 0 0 42.2 36;" xml:space="preserve" >
<style type="text/css">
	.st0{clip-path:url(#SVGID_00000032649996562462419700000007978746010759217338_);}
	.st1{fill-rule:evenodd;clip-rule:evenodd;fill:#101010;}
</style>
<g> 
	<defs>
		<rect id="SVGID_1_" width="172" height="36"/>
	</defs>
	<clipPath id="SVGID_00000108299576541963842170000001675091018671904923_">
		<use xlink:href="#SVGID_1_"  style="overflow:visible;"/>
	</clipPath>
	<g style="clip-path:url(#SVGID_00000108299576541963842170000001675091018671904923_);">
		<path class="st1" d="M23.7,22.9L23.7,22.9c0-0.2,0-0.2,0.1-0.1c0.2,0.2,0.9,0.4,1.6,0.4c0.6,0,1-0.1,1.3-0.2c0.1,0,0.1,0,0.1,0.1
			C26.1,23.5,24,23.8,23.7,22.9z M23.7,27.7c-0.3,0.1-0.4,0.1-0.6-0.1c-0.3,0.5-0.8,0.8-1.2,1.1c-0.5,0.4-0.3,0.2,0.1,0.1
			C22.5,28.5,23.1,28.2,23.7,27.7z M37.4,19.4c1.4-0.1,2.8-0.4,2.9-0.6c0.1-0.1-0.5-0.3-0.9-0.4c-0.3-0.1-0.3-0.1-0.4-0.2l0-0.2
			l0.4,0c0.5,0,1.2,0.2,1.4,0.4c0.2,0.1,0.2,0.1,0.2,0.3c0,0.2,0,0.2-0.2,0.3c-0.5,0.3-2.1,0.7-3.8,0.8c-1,0.1-4,0.1-5,0
			c-1.4-0.1-2.8-0.4-3.5-0.7c-0.5-0.2-0.6-0.5-0.4-0.7c0.1-0.1,0.9-0.4,1.3-0.4c0.3,0,0.3,0,0.3,0.1c0,0.1,0,0.1,0,0.2
			c0,0-0.2,0.1-0.4,0.1c-0.2,0.1-0.4,0.1-0.5,0.2l-0.1,0.1l0.1,0.1c0.3,0.2,1.4,0.4,2.9,0.5c0.5,0,1.6,0.1,2.7,0.1
			C35.7,19.4,36.8,19.4,37.4,19.4z M33.4,18.6c0.1,0.1,0.2,0.1,0.2,0.1c0.1,0,0.2-0.1,0.3-0.2c0.1-0.1,0.2-0.3,0.2-0.4
			c0.1-0.2,0.1-0.2,0.2-0.2c0.4,0,0.6,0.3,0.6,0.7c0,0.3,0.1,0.3,0.3,0.1c0.1-0.2,0.2-0.2,0.1-0.4c-0.1-0.8-0.7-1.3-1.5-1
			C33.3,17.4,32.9,18.3,33.4,18.6z M30.6,18c0,0.2,0.1,0.5,0.2,0.5c0,0,0.1-0.1,0.1-0.1c0.1-0.2,0.2-0.5,0.4-0.5
			c0.3-0.1,0.3-0.1,0.3,0.1c0,0.3,0.1,0.5,0.3,0.7c0.2,0.2,0.3,0.2,0.5,0c0.2-0.2,0.1-0.7-0.2-1.1c-0.2-0.3-0.4-0.4-0.8-0.4
			C31,17.1,30.6,17.5,30.6,18L30.6,18z M36.4,18.7c0.1,0,0.1,0.1,0.2,0.1c0.1,0,0.2,0,0.2-0.1c0.2-0.1,0.3-0.4,0.3-0.6
			c0-0.3,0.1-0.3,0.3-0.2c0.2,0.1,0.4,0.3,0.5,0.6c0,0.2,0.1,0.2,0.2,0c0.4-0.7-0.3-1.5-1.1-1.3c-0.5,0.1-0.9,0.5-0.9,1
			C36.2,18.5,36.2,18.6,36.4,18.7z M31.7,16c-0.2-0.2,0.1-0.7,0.5-0.9c0.5-0.3,1.2-0.1,1.5,0.6c0.2,0.4,0.1,0.9-0.3,1.2
			c-0.2,0.2-0.6,0.2-0.8,0.1c-0.3-0.2-0.4-0.9-0.1-1.1c0.1-0.1,0.1-0.1,0-0.1c-0.1,0-0.3,0.1-0.5,0.4C31.9,16,31.8,16.1,31.7,16
			C31.8,16.1,31.7,16.1,31.7,16z M35.5,16.9c-0.7-0.2-0.9-1-0.4-1.5c0.3-0.3,0.6-0.4,1-0.4c0.4,0,0.6,0.1,0.8,0.4
			c0.2,0.2,0.3,0.4,0.3,0.6c0,0.3-0.1,0.3-0.4,0c-0.2-0.2-0.7-0.5-0.7-0.4c0,0,0,0.1,0.1,0.1c0.1,0.1,0.2,0.7,0.1,0.9
			c0,0.1-0.1,0.2-0.2,0.3c-0.1,0.1-0.2,0.1-0.3,0.1C35.7,16.9,35.6,16.9,35.5,16.9z M35.9,14c-0.4,0-0.7,0.1-1,0.3
			c-0.1,0-0.2,0.1-0.2,0.2c-0.2,0.2-0.3,0.3-0.4,0.5c0,0-0.1,0.1-0.1,0.1c-0.1-0.1-0.2-0.2-0.3-0.4c-0.4-0.6-0.5-0.7-1.1-0.6
			c-0.6,0-0.9,0.1-1.4,0.6c-0.4,0.4-0.5,0.7-0.6,1.3c0,0.4,0,0.4-0.2,0.5c-0.3,0.2-0.6,0.4-0.7,0.6l-0.1,0.2l-0.5,0.1
			c-1,0.1-1.8,0.5-2,0.9c-0.1,0.2-0.1,0.6,0,0.8c0.2,0.4,1,0.9,1.8,1.2c0.8,0.2,2.2,0.5,3.6,0.5c1.2,0.1,2.1,0.1,3.5,0
			c3.1-0.1,4.6-0.5,5.4-1.4c0.3-0.3,0.4-0.5,0.3-0.9c-0.1-0.6-1.1-1.1-2.5-1.2l-0.4,0L38.8,17c-0.1-0.2-0.4-0.4-0.5-0.5l-0.3-0.2
			l0-0.4c0-0.7-0.4-1.3-1-1.6c-0.1-0.1-0.3-0.1-0.5-0.2C36.4,14,36.2,14,35.9,14L35.9,14z M4.8,18.9H3.3v0.4l1.3,0L4.8,18.9z
			 M17.8,16.4c-0.4,0.2-0.3,0.8,0,1.1c0.2,0.2,0.6,0.1,0.7-0.1c0.4-0.4,0-1-0.5-1C18,16.3,17.9,16.4,17.8,16.4z M18.6,21.3
			c-0.1,0.1-0.2,0.2-0.2,0.4c0,0.2,0,0.3,0.2,0.4c0.1,0.1,0.2,0.2,0.4,0.2c0.6,0,0.8-0.6,0.4-1c-0.2-0.2-0.2-0.2-0.4-0.2
			C18.8,21.2,18.7,21.2,18.6,21.3z M3.6,21.1L3.6,21.1c0,0.1,0,0.1,0.3,0.1c0.2,0,0.3,0,0.3-0.1c0-0.1,0-0.1-0.3-0.1
			c-0.1,0-0.1,0-0.2,0C3.6,21,3.6,21,3.6,21.1z M3.4,20.3h0.5c0.4,0,0.5,0,0.5-0.1C4.6,20,4.5,20,3.9,20H3.4V20.3z M10.5,31.1
			c-0.1-0.1,0-0.1,0-0.3c0.1-0.4,0.4-1,0.7-1.5l0.3-0.4l0.4,0.1c0.5,0.1,3,0.7,3,0.8c0,0-0.1,0.2-0.2,0.4c-0.3,0.5-0.6,1-0.8,1.8
			c-0.1,0.3-0.2,0.6-0.2,0.7c0,0-0.1,0.1-0.2,0c-0.2,0-1.1-0.4-1.6-0.7l-0.3-0.2l0-0.3c0-0.2,0.1-0.6,0.1-0.9
			c0.1-0.7,0.1-0.8-0.1-0.6c-0.2,0.2-0.5,0.5-0.8,0.9c-0.1,0.3-0.2,0.4-0.3,0.3C10.6,31.2,10.6,31.1,10.5,31.1z M21.4,32.5
			c0-0.3,0-0.3,0.2-0.4c0.2-0.1,0.4-0.5,0.5-0.9c0-0.2,0.1-0.3,0.2-0.4c0.2-0.2,2-1.1,2-1.1c0.1,0.1-0.7,2.6-0.9,2.6
			c0,0-0.1-0.1-0.1-0.2c0-0.3-0.2-0.6-0.4-0.7c-0.2-0.1-0.3,0-0.6,0.4c-0.2,0.2-0.4,0.5-0.6,0.7l-0.3,0.3V32.5z M15.5,30.9
			c0.1-0.4,1-0.8,2.1-1.1c0.6-0.2,0.9-0.2,1-0.2c0.2,0.1,1.1,0.8,1.1,0.9c0,0-0.1,0.1-0.1,0.2c-0.1,0.1-0.2,0.1-0.4,0
			c-0.2-0.1-0.3-0.1-0.3,0c0,0.1,0.1,0.2,0.6,0.7c0.3,0.3,0.4,0.4,0.2,0.5c-0.1,0.1-0.2,0.1-0.7-0.2c-0.5-0.3-0.5-0.3-0.6-0.1
			c0,0.1,0,0.2,0.2,0.4c0.4,0.3,0.4,0.3,0.3,0.5c-0.1,0.2-0.2,0.3-0.5,0.1c-0.2-0.1-0.3-0.2-0.4-0.2c-0.1-0.1-0.1,0-0.1,0
			c0,0.1,0,0.2,0.2,0.4c0.2,0.2,0.2,0.3,0.2,0.4c-0.1,0.3-0.2,0.3-0.6,0c-0.3-0.2-0.3-0.2-0.7-0.2c-0.3,0-0.6-0.1-1.2-0.2l-0.8-0.2
			l0-0.2c0-0.4,0.1-0.5,0.5-0.6c0.2,0,0.4-0.1,0.4-0.1c0,0,0.2,0,0.4-0.1l0.3-0.1l-0.2-0.1c-0.2-0.2-0.4-0.2-0.8-0.2
			c-0.1,0-0.3,0-0.3,0C15.5,31,15.5,30.9,15.5,30.9z M19.7,29.7c0,0,0.4,0.2,0.6,0.4c0.2,0.2,0.5,0.2,0.6,0.2c0.1,0,0.1,0,0.2,0
			c3.4-1.5,5.2-2.8,6.1-7.4c-0.5-0.4-3-0.5-3.6-0.2C22.8,27.8,19.7,28.6,19.7,29.7z M30.6,25.6c-0.1-0.4-0.2-0.7-0.4-0.9
			c-0.1-0.1-0.2-0.2-0.2-0.2c0,0,0.2-0.2,0.4-0.3c0.2-0.2,0.5-0.4,0.7-0.6c0.2-0.2,0.4-0.3,0.4-0.3c0.1,0,0.5,0.7,0.8,1.1
			c0.2,0.5,0.5,1.3,0.6,1.7l0,0.3l-0.4,0.2c-0.2,0.1-0.4,0.2-0.4,0.2c0,0,0-0.2,0-0.4c0-0.4-0.1-0.9-0.3-1.3
			c-0.1-0.3-0.5-0.8-0.6-0.8c0,0-0.1,0.1-0.1,0.3c0,0.2-0.2,0.5-0.3,0.8l-0.2,0.4L30.6,25.6z M34.6,22.5
			C34.6,22.5,34.6,22.5,34.6,22.5c-0.3,0-0.7,0-0.9,0c-0.3,0-0.5,0-0.6,0c-0.2,0.1-0.6,0.4-0.6,0.4c0,0,0.6,1.1,0.7,1.1
			c0,0,0.2-0.1,0.5-0.2c0.3-0.1,0.7-0.3,1-0.5c0.3-0.1,0.7-0.3,1-0.5c0.9-0.4,1.7-1,1.7-1.2c0-0.1-0.5-0.1-1,0.2
			C35.5,22.3,35.1,22.5,34.6,22.5z M23.5,17.8c-0.2-0.9-0.6-1.9-1-2.6c-0.1-0.3-0.2-0.5-0.2-0.5c0,0,0.2,0.2,0.5,0.4
			c1.9,1.5,2.6,2.4,3.4,4.7c0.2,0.7,0.7,2.9-0.1,1.2c-0.7-1.4-0.9-1.6-1.2-2.2l-0.3-0.4l0,0.5c0,0.3,0.2,2.7,0,2.7
			C24.4,20.5,23.7,18.8,23.5,17.8z M9.2,17.4c0.5-1.1,1.3-2,2.5-2.9c0.4-0.3,1.3-0.8,1.3-0.7c0.1,0.1,0.2,1.8,0.1,2.5
			c-0.1,1.3-0.3,2.4-0.9,4.5C11.4,23.4,11,25,10.9,25c0,0,0-0.3,0.1-2.5c0.2-2.6,0.4-5.4,0.4-5.6c0-0.4-1.3,3.8-2.1,6.7
			c-0.3,1-0.6,2.2-0.8,2.8c-0.4,1.2-0.4,1.4-0.4,1.1c0-0.3,0.5-4.1,0.8-5.5c0.1-0.5,0.8-4.4,0.8-4.6c0-0.1,0-0.1-0.1,0.1
			c-0.1,0.1-0.4,0.5-0.5,0.5C9,17.9,9,17.8,9.2,17.4z M18.4,27.7c0,0-0.1-1-0.1-2.1c-0.1-2.4-0.3-4.7-0.5-5.5l-0.1-0.6l0,0.5
			c0.1,1.5,0.1,4.6,0,6.1l-0.1,1.6l-0.1,0.1c-0.1,0.1-0.2,0.1-0.2,0.1c-0.1-0.1-0.3-3.9-0.5-6c-0.1-0.9-0.1-1.7-0.1-1.7
			c0,0,0,0.1,0,0.3c0,1-0.5,6.6-0.7,6.6c0,0,0-0.1,0-0.1c0-0.3-0.3-5.1-0.4-6.3c-0.1-0.7-0.1-1.5-0.1-1.7c0-0.3,0-0.4-0.1-0.4
			c0,0,0,0.5-0.1,1c-0.1,2.2-0.4,5.4-0.5,5.4c0,0,0,0,0,0c0,0-0.2-3-0.4-6c-0.1-2.7-0.2-3.5-0.3-4.7c0-0.5-0.1-0.8,0-0.9
			c0,0,0.1,0,0.2,0.1c0.4,0.2,1.5,0.8,1.9,0.9c0.8,0.3,1.4,0.4,2.4,0.4c0.9,0,1.2-0.1,1.9-0.4c0.2-0.1,0.4-0.2,0.4-0.2
			c0.1,0,0.7,1,1,1.6c0.7,1.4,1.6,3.4,1.8,5.8c0,0.2-1.1,0.1-1.1,0.4c0.4,2.3-2.2,5.9-3,6L18.4,27.7z M19.4,13.2
			c0,0.4,0,0.5,0.1,0.5c0,0,0,0,0.1,0c0.1,0,0.2-0.1,0.2-0.1c0.1-0.1,0.1-0.2,0.1-0.9c0-0.3-0.1-0.5-0.1-0.5c0,0-0.1,0.1-0.2,0.3
			C19.4,12.7,19.4,12.8,19.4,13.2z M18,13.7c0.1,0,0.2,0,0.3,0c0.1,0,0.1-0.1,0.2-0.3c0-0.6-0.1-1-0.5-1.2c-0.1,0-0.7-0.2-1.3-0.4
			c-0.7-0.2-1.2-0.3-1.3-0.3c-0.2-0.1-0.2,0.1,0.1,0.4c0.2,0.3,0.4,0.4,1,0.7l0.4,0.2l-0.4,0c-0.2,0-0.4,0.1-0.4,0.1
			C16,13.1,17.4,13.6,18,13.7z M16.3,10.7c-0.1,0-1-0.4-1.1-0.5c-0.1-0.1-0.1-1,0-1c0,0,0.1,0,0.2,0.1c0.1,0.1,0.2,0.2,0.4,0.5
			c0.1,0.2,0.3,0.5,0.4,0.7C16.3,10.6,16.4,10.7,16.3,10.7z M16.2,6.4C16.1,6.4,16.1,6.4,16.2,6.4c-0.2,0-0.2,0-0.3-0.2
			c-0.2-0.3-0.4-0.4-0.6-0.5c-0.3,0-0.6,0.1-0.7,0.4c-0.2,0.5,0.1,1.6,0.5,1.9c0.2,0.2,0.4,0.2,0.7,0.1c0.2-0.1,0.4-0.1,0.5,0
			c0,0,0.1,0.3,0.1,0.6c0.1,0.6,0.2,0.9,0.5,1.2c0.3,0.3,0.6,0.5,1.2,0.6c0.7,0.2,1,0.2,1.9,0.2c0.7,0,0.8,0,0.9-0.1
			C21,10.4,21,10.3,21,10c0-0.3-0.1-0.4-0.4-0.4c-0.4,0-0.3-0.1,0.1-0.1c0.3,0,0.4-0.1,0.4-0.3c0-0.2-0.2-0.3-0.5-0.3
			c-0.1,0-0.4,0.1-0.7,0.2c-0.8,0.3-1.4,0.2-1.8-0.3c-0.2-0.2-0.2-0.3-0.2-0.6c0-0.2,0-0.3,0.1-0.4c0,0,0.1,0.1,0.3,0.2
			c0.4,0.3,0.7,0.2,1.3-0.3L20,7.4l0.5,0c0.5,0,0.5,0,0.6-0.1c0.1-0.1,0.1-0.2,0.1-0.3c0-0.3-0.2-0.9-0.4-1.3
			c-0.1-0.2-0.2-0.5-0.2-0.5c0-0.3,0.3-0.5,0.6-0.5c0.3,0,0.3,0,0.1-0.6c-0.1-0.4-0.2-0.6-0.3-0.7c0,0-0.1-0.1-0.1-0.1c0,0,0,0,0,0
			c-0.2-0.1-1.5,0-2.4,0.2c-1,0.2-1.5,0.7-1.7,1.8c-0.1,0.3-0.1,0.5-0.2,0.6C16.6,6.1,16.4,6.3,16.2,6.4L16.2,6.4z M21,0
			C20.9,0,20.9,0,21,0c-0.2,0-0.4,0-0.6,0c-0.7,0.1-1.3,0.3-2,0.4c0,0,0,0-0.1,0c-0.1,0-0.1,0-0.2,0c0,0,0,0-0.1,0c0,0,0,0,0,0
			c-0.1,0-0.2,0-0.2,0c0,0-0.1,0-0.1,0c-0.2,0-0.4,0-0.6,0c-0.2,0-0.4,0-0.7,0c-0.2,0-0.4,0-0.7,0c-0.1,0-0.2,0-0.3,0
			c-0.1,0-0.3,0-0.4,0c-0.2,0-0.4,0-0.6,0c-0.2,0-0.3,0-0.4,0c-0.1,0-0.3,0-0.4,0c-0.2,0-0.3,0-0.5,0c-0.2,0-0.4,0-0.5,0
			c0,0,0,0-0.1,0c-0.3,0-0.6,0.1-0.9,0.2c-0.1,0.1-0.3,0.2-0.2,0.4c0.1,0.2,0.3,0.3,0.4,0.5c0,0,0,0,0.1,0.1c0,0,0.1,0.1,0.1,0.1
			c0,0,0,0,0,0c0,0,0,0,0,0c0,0.1-0.1,0.2-0.1,0.3c-0.1,0.3-0.1,0.6-0.1,1c0,0.4,0,0.6,0.2,0.8c0.3,0.6,0.8,1,1.5,1.1l0.2,0.1l0,0.9
			c0,0.9,0,1,0.2,1.4c0.1,0.2,0.2,0.6,0.4,0.9l0.2,0.4l0,1.3L14,10.4l0,0.8c0,0.4-0.1,0.8-0.1,0.9c0,0-0.3,0.1-0.6,0.2
			c-0.8,0.3-2.1,0.8-2.9,1.2c-2.7,1.4-3.9,3-5,7c-0.3,1.2-0.7,2.8-0.9,3.9c-0.1,0.4-0.1,0.7-0.2,0.8c-0.1,0.1-0.9-2-1.2-3.1
			c-0.8-2.9-0.7-6.2,0.3-9.2c0.5-1.4,1.2-2.9,2.1-4.1c1.2-1.8,3-3.4,4.8-4.4C10.8,4,10.9,4,10.8,3.9c0-0.1-0.1-0.3-0.1-0.5
			c0-0.2-0.1-0.3-0.1-0.3c-0.1,0-1.2,0.6-1.9,1.1C6.8,5.5,5.1,7.3,3.9,9.5c-0.8,1.4-1.4,3-1.8,4.7c-0.4,1.8-0.6,3.9-0.3,5.9
			c0.4,3.4,2,6.7,4.5,9.3c2.8,2.9,6.2,4.5,10.3,4.9c2.5,0.2,5.2-0.2,7.7-1.2c2.1-0.8,4.2-2.3,5.9-4.2c0.3-0.3,0.4-0.4,1-0.6
			c1.2-0.5,2.6-1.2,2.7-1.3c0-0.1-0.1-0.9-0.2-1.5c-0.1-0.3-0.1-0.5,0-0.5c0,0,0.3-0.1,0.6-0.2c1.3-0.5,3-1.5,3.8-2.2
			c0.4-0.3,0.6-0.7,0.6-0.9c0-0.2-0.3-0.4-0.5-0.5c-0.1,0-0.5,0-1,0.1c-0.5,0.1-1.5,0.1-2.7,0.1c-2.1,0-2,0-2.5,0.6
			c-0.3,0.3-0.3,0.3-0.5,0.3c-0.2,0-0.3,0-0.7,0.3c-1,0.8-2.1,1.6-2.3,1.6c-0.1,0-0.1-0.1-0.2-0.5c-0.4-2.4-1.4-5-2.5-6.6
			c-1.1-1.7-2.4-2.9-4.3-3.8c-0.4-0.2-0.7-0.4-0.8-0.4c-0.1-0.1-0.1-0.1-0.1-0.6l0-0.6l0.3-0.1c0.3-0.2,0.7-0.5,0.8-0.8
			c0.1-0.3,0.2-0.9,0.2-1.3c0-0.2,0-0.3,0.2-0.4c0.1-0.1,0.3-0.3,0.3-0.4c0.1-0.2,0.1-0.6,0-0.8l-0.1-0.2l-0.1,0.2
			C22.2,8,22,8.1,21.9,8.1c-0.1,0-0.1-0.3,0-0.8C22,7.1,22,6.6,22,6.4c0-0.5,0-0.5,0.2-0.8c0.3-0.4,0.3-0.6,0.1-1.3
			c-0.1-0.4-0.2-0.6-0.2-1.1l0-0.1v0c0,0,0,0,0,0c0.1,0,0.2-0.1,0.3-0.1c0.3-0.1,0.6-0.2,0.8-0.3c0,0,0,0,0.1,0
			c0.1,0,0.1-0.1,0.2-0.1c0,0,0,0,0,0c0.1,0,0.1,0,0.2-0.1c0.1-0.1,0.3-0.1,0.4-0.2c0,0,0.1,0,0.1-0.1c0,0,0,0,0.1,0
			c0.1,0,0.1-0.1,0.2-0.1c0,0,0,0,0,0c0.2-0.1,0.4-0.3,0.4-0.5c0,0,0,0,0,0l0,0c0,0,0,0,0,0c0,0,0,0,0,0c0,0,0,0,0,0
			C24.7,1.2,24.4,1,23.9,1c-0.2,0-0.5-0.1-0.8-0.1H23c0,0-0.1,0-0.1,0c-0.1,0-0.2,0-0.3,0c-0.1,0-0.1,0-0.2,0c-0.1,0-0.2,0-0.3,0
			c0-0.1,0-0.2,0-0.2c0-0.1,0-0.2-0.1-0.3c0,0,0,0,0,0c-0.1-0.2-0.3-0.2-0.5-0.3c-0.1,0-0.2,0-0.3,0c0,0,0,0,0,0c0,0,0,0,0,0
			c0,0,0,0,0,0c0,0,0,0-0.1,0C21,0,21,0,21,0L21,0z M18.1,19.5c0.1,0.2,0.2,0.4,0.4,0.4c0.3,0.1,0.6,0,0.7-0.3
			c0.2-0.4-0.1-0.9-0.5-0.9C18.3,18.7,18,19.1,18.1,19.5z M18.8,24c0.2-0.2,0.2-0.2,0.4-0.2c0.3,0,0.6,0.2,0.6,0.6
			c0,0.2,0,0.3-0.2,0.5c-0.2,0.2-0.5,0.3-0.7,0.2c-0.2-0.1-0.3-0.3-0.3-0.6C18.6,24.2,18.7,24.1,18.8,24z M18.8,26.8
			c0.1-0.3,0.3-0.4,0.6-0.4c0.2,0,0.3,0,0.4,0.2c0.2,0.2,0.2,0.5,0.1,0.7c-0.1,0.2-0.4,0.4-0.7,0.3C18.9,27.5,18.7,27.1,18.8,26.8z
			 M22,18.6L22,18.6c-0.3,0-0.6,0.2-0.6,0.5c0,0.3,0.1,0.5,0.3,0.6c0.3,0.1,0.3,0.1,0.5,0c0.2-0.1,0.4-0.3,0.4-0.6
			c0-0.3-0.1-0.5-0.4-0.6C22.1,18.6,22,18.6,22,18.6z M21,16.4c-0.1,0.2-0.2,0.2-0.2,0.4c0,0.2,0,0.3,0.2,0.4
			c0.2,0.2,0.2,0.2,0.4,0.2c0.2,0,0.3,0,0.4-0.2c0.3-0.3,0.2-0.8-0.2-1c-0.1-0.1-0.2-0.1-0.3-0.1C21.3,16.2,21.2,16.3,21,16.4z
			 M3.3,18.2v-0.2c0-0.1,0-0.2,0-0.2c0,0,0.1,0,0.2,0c0.2,0,0.4,0,0.7,0l0.9,0L5,18.1L5,18.2H3.3z M12.8,8.1l0.1,0.2
			C13,8.3,13,8.4,13,8.5s-1.4,0-3.2,0c-1.7,0-3.2,0-3.2,0c0,0,0.1-0.1,0.1-0.2l0.1-0.1L12.8,8.1z M6.1,9.2l0.1-0.1l3.5,0
			c3.4,0,3.5,0,3.6,0.1c0,0.3,0.1,0.3-3.7,0.3C6.6,9.5,6,9.5,6,9.4C6,9.4,6,9.3,6.1,9.2z M12.6,7.1l0.1,0.1c0.1,0.3,0.2,0.3-2.4,0.3
			c-1.3,0-2.4,0-2.6,0c-0.2,0-0.2-0.1,0-0.3l0.2-0.1H12.6z M10.8,5.1c0.2,0,0.3,0,0.4,0c0.2,0,0.2,0,0.3,0.1
			c0.1,0.1,0.2,0.1,0.2,0.2l0.1,0.1l-0.2,0c-0.2,0.1-1.8,0.1-1.8,0c0,0,0.1-0.1,0.2-0.2C10.2,5.2,10.3,5.2,10.8,5.1z M8.6,2.3
			C6.4,3.7,4.4,5.6,3,7.8c-1.6,2.5-2.4,4.8-2.9,8c-0.1,1-0.1,3.6,0,4.5c0.4,2.9,1.2,5.1,2.8,7.5c0.7,1.1,1.3,1.9,2.2,2.8
			c1.1,1.1,2.1,1.9,3.3,2.7c2.6,1.6,5.3,2.4,8.5,2.6c5.1,0.3,9.7-1.4,13.3-4.8c0.7-0.7,2-2.2,1.9-2.3c0,0-0.2,0-0.3,0.1
			c-0.2,0-0.5,0.1-0.7,0.1l-0.4,0.1l-0.7,0.7c-1.4,1.4-2.9,2.5-4.5,3.3c-1.7,0.9-3.4,1.4-5.2,1.7c-0.8,0.1-1.1,0.1-2.4,0.2
			c-1.6,0-2.1,0-3.4-0.3c-2.8-0.5-5.1-1.6-7.4-3.4c-0.7-0.5-2.1-2-2.7-2.7c-1.9-2.5-3-5.1-3.5-8.2c-0.1-1-0.1-3.6,0-4.5
			c0.4-2.7,1.3-5.1,2.7-7.2C4.5,7.4,5.1,6.7,6,5.7c1.2-1.2,2.4-2.1,4.1-3.1l0.4-1.3C9.9,1.5,9,2,8.6,2.3L8.6,2.3z M8.7,6.3L9,6.1
			h0.9c0.5,0,1.3,0,1.8,0l0.8,0v0.1c0,0.1,0,0.2-0.4,0.2c-0.4,0-3.2,0-3.5,0l-0.2,0L8.7,6.3z M13.1,10l0,0.2c0,0.1-0.1,0.2-0.1,0.2
			c-0.1,0.1-7.6,0.1-7.6,0c0,0,0-0.1,0.1-0.2L5.6,10L13.1,10z M18.1,4.8c0.2-0.1,0.3-0.1,0.9-0.1c0.8,0,1,0.1,1,0.4
			c0.1,0.3-0.1,0.4-0.5,0.7c-0.5,0.3-0.7,0.3-0.9,0.1c-0.1-0.1-0.1-0.2-0.1-0.2c0-0.2,0-0.2-0.4-0.1c-0.3,0.1-0.6,0-0.6-0.1
			C17.5,5.3,17.8,4.9,18.1,4.8z M4.8,15.9c0.7,0,1.3,0,1.3,0c0,0,0,0.1-0.1,0.2l-0.1,0.2H4.6c-1.2,0-1.2,0-1.2-0.1
			c0-0.3,0-0.3,1.1-0.3H4.8z M8.6,11.4c-3.4,0-3.7,0-3.7-0.1c0,0,0-0.1,0.1-0.2C5,11,5.1,11,8.9,11c2.9,0,4,0,4,0.1
			c0,0,0,0.1-0.1,0.2l-0.1,0.1H8.6z M5.2,14.9c0.8,0,1.5,0,1.5,0c0,0-0.1,0.1-0.1,0.2l-0.1,0.2H5c-1.3,0-1.5,0-1.5-0.1
			c0,0,0-0.1,0.1-0.2C3.6,14.9,3.7,14.9,5.2,14.9L5.2,14.9z M3.3,17.3v-0.3h1.1c0.6,0,1.1,0,1.1,0c0,0,0,0.1-0.1,0.2
			c-0.1,0.1-0.1,0.1-1,0.1L3.3,17.3z M4.6,12c0,0,1.5,0,3,0c1.7,0,3.4,0,3.5,0c0.1,0,0,0.1-0.3,0.2l-0.4,0.2l-2.7,0
			c-1.5,0-2.8,0-2.9,0c-0.1,0-0.2,0-0.2,0C4.4,12.3,4.5,12,4.6,12z M5.8,13.9l2,0l-0.4,0.4H3.7l0-0.1c0-0.1,0-0.2,0-0.2
			c0-0.1,0.4-0.1,1.7-0.1H5.8z M6.7,13c1.4,0,2.5,0,2.5,0c0,0-0.1,0.1-0.3,0.2l-0.3,0.2H6.3c-1.2,0-2.2,0-2.3,0c0,0,0-0.1,0-0.2
			L4.1,13L6.7,13z M14.9,6.5c0-0.2,0.1-0.3,0.3-0.3c0.1,0,0.1,0,0.2,0.1c0.1,0.1,0.2,0.4,0.3,0.7c0,0.2,0,0.2-0.1,0.3
			c-0.2,0.1-0.2,0.1-0.4,0C15.1,7.2,14.9,6.7,14.9,6.5z M25.8,15.3l-0.1-0.2c-0.1-0.1-0.1-0.2-0.1-0.2c0,0,0.8,0,1.6,0
			c1.1,0,2.4,0,2.4,0c0,0,0,0.1-0.1,0.2l-0.1,0.2H25.8z M27.5,13.9c1.6,0,2.8,0,2.8,0c0,0-0.1,0.1-0.2,0.2L30,14.3l-5.2,0l-0.1-0.2
			c-0.1-0.1-0.1-0.2-0.1-0.2C24.5,14,25.8,13.9,27.5,13.9L27.5,13.9z M26.4,16c0,0,0.6,0,1.3,0c0.7,0,1.4,0,1.4,0c0,0,0,0.1,0,0.2
			l0,0.1l-2.4,0l-0.1-0.2C26.4,16.1,26.4,16,26.4,16z M25.4,4.5l0.2-1c2.8,1.6,5.1,4.1,6.6,7.1c0.4,0.7,0.8,1.8,0.8,1.8
			c0,0-0.1,0.1-0.3,0.2c-0.1,0.1-0.3,0.2-0.4,0.2l-0.1,0.1l-0.1-0.2c-1.4-3.6-3.5-6.1-6.6-8.1C25.5,4.5,25.5,4.5,25.4,4.5z
			 M25.9,2.9l-0.4-1.4c0.1,0.1,0.3,0.1,0.4,0.2c2.7,1.5,4.7,3.3,6.5,5.8c0.8,1.1,1.9,3.1,1.9,3.6c0,0.2,0,0.2-0.1,0.3
			c-0.1,0.1-0.3,0.2-0.4,0.3c-0.2,0.1-0.2,0.2-0.2,0.1c0-0.1-0.3-0.5-0.5-1c-1.1-2.3-2.6-4.2-4.4-5.8C27.8,4.1,26.9,3.4,25.9,2.9z
			 M23.1,6.6V6.2l0.4,0c0.1,0,0.4,0,0.8,0c0.3,0,0.6,0,1,0l1.4,0l0.2,0.2c0.1,0.1,0.2,0.2,0.1,0.2c0,0-0.9,0-1.9,0H23.1z M22.8,10.2
			l0-0.2l7.2,0l0.1,0.2c0.1,0.1,0.1,0.2,0.1,0.2c-0.1,0.1-7.4,0-7.4,0C22.7,10.4,22.7,10.3,22.8,10.2z M23.1,13l0.2,0.2
			c0.1,0.1,0.3,0.2,0.3,0.2c0.1,0.1,7.7,0,7.7,0c0,0,0-0.1,0-0.2l0-0.2L23.1,13z M23.1,9.5l0-0.1c0-0.1,0.1-0.2,0.1-0.2
			c0.1,0,1.5,0,3.1,0l3,0l0.1,0.1c0.1,0.1,0.1,0.2,0.1,0.2c0,0-1.5,0-3.2,0H23.1z M30.5,11l0.1,0.1c0.2,0.3,0.4,0.3-4.1,0.3
			c-2.6,0-4.2,0-4.2-0.1c0,0,0-0.1,0.1-0.2l0.1-0.1L30.5,11z M28.5,8.1l0.2,0.1c0.1,0.1,0.2,0.2,0.2,0.2c0,0-1.1,0.1-2.7,0.1h-2.7
			l0-0.4L28.5,8.1z M26.8,12H31l0.1,0.2c0.1,0.1,0.1,0.2,0.1,0.2c0,0-2,0-4.5,0l-4.4,0l-0.3-0.1c-0.2-0.1-0.3-0.1-0.3-0.2
			C21.6,12,22.6,12,26.8,12z M25.4,7.1h2.3l0.2,0.2C27.9,7.4,28,7.5,28,7.5c0,0-3,0-4.2,0c-0.5,0-0.6,0-0.6-0.2
			c0-0.1-0.1-0.2-0.1-0.2C23.1,7.1,24,7.1,25.4,7.1z M28.6,21.4c-0.1-0.2-0.1-0.3,0.2-0.3c0.1,0,0.2,0,0.3,0l0.5,0l0,0.2
			c0,0.1,0,0.2,0,0.2c0,0-0.3,0-0.5,0C28.7,21.6,28.6,21.5,28.6,21.4z M29,22.5c-0.1-0.2-0.1-0.3,0.1-0.3c0,0,0,0,0.1,0
			c0.2,0,0.3,0.1,0.1,0.3C29,22.6,29,22.6,29,22.5z M23.5,5.2h0.9c0.9,0,0.9,0,1.1,0.2c0.1,0.1,0.2,0.2,0.2,0.2c0,0-1.9,0-2.1,0
			c-0.1,0-0.1-0.1-0.1-0.2L23.5,5.2z M23.2,4.2c0.1,0,0.6,0.2,0.7,0.3c0,0-0.2,0-0.5,0C23.3,4.4,23.2,4.3,23.2,4.2
			C23.2,4.2,23.2,4.2,23.2,4.2L23.2,4.2z"/>
	</g>
</g>
</svg>
