<?xml version="1.0" encoding="utf-8"?><svg viewBox="0 0 146 26" xmlns="http://www.w3.org/2000/svg" xmlns:xlink="http://www.w3.org/1999/xlink"><style>:root>svg{display:none}:root>svg:target{display:block}</style><svg viewBox="0 0 20 18" id="calendar" xmlns="http://www.w3.org/2000/svg"><path d="M14.45 2.65h-9.6c-1.767 0-3.2 1.393-3.2 3.111v7.778c0 1.718 1.433 3.111 3.2 3.111h9.6c1.767 0 3.2-1.393 3.2-3.111V5.76c0-1.718-1.433-3.111-3.2-3.111zM6.05.65v3m7.2-3v3m-12.6 3h18"/></svg><svg viewBox="0 0 22 22" id="clock" xmlns="http://www.w3.org/2000/svg"><path d="M10.65 4.65v6h6m-6 10c5.523 0 10-4.477 10-10s-4.477-10-10-10-10 4.477-10 10 4.477 10 10 10z"/></svg><svg viewBox="0 0 24 24" id="close" xmlns="http://www.w3.org/2000/svg"><path d="M23.361 21.15l-9.302-9.29 9.303-9.184.317-.317c.317-.422.422-.95.211-1.372-.211-.422-.529-.845-1.057-.95-.529-.106-1.057 0-1.586.528l-9.302 9.29-6.66-6.651L2.643.564C2.22.038 1.69-.068 1.163.038.634.142.21.565 0 1.092v.74c.106.422.423.738.74 1.055l9.09 9.079-9.09 9.078c-.317.317-.634.634-.74 1.056v.633c.211.634.529 1.056 1.163 1.267h.634c.423-.106.74-.422 1.057-.633l9.091-9.079 9.09 9.079c.318.316.53.527.952.633h.635l.21-.106c.53-.21.952-.738.952-1.372.106-.633-.105-.95-.422-1.372z"/></svg><svg viewBox="0 0 26 26" id="cookies" xmlns="http://www.w3.org/2000/svg"><path d="M7.336 14.003v.014m5.334 5.32v.013m0-6.68v.013m5.333 2.653v.014m-6.667-8.014v.014M14.2 1.304l3.556 1.472a5.333 5.333 0 006.209 8.187l.07.176a4 4 0 010 3.062c-.662 1.048-1.117 1.872-1.365 2.469-.252.608-.545 1.593-.88 2.954a4 4 0 01-2.165 2.165c-1.398.35-2.383.643-2.955.88-.633.263-1.456.718-2.47 1.366a4 4 0 01-3.06 0c-1.07-.67-1.893-1.125-2.47-1.365-.629-.26-1.614-.553-2.955-.88a4 4 0 01-2.164-2.165c-.353-1.402-.647-2.387-.881-2.955-.265-.638-.72-1.462-1.366-2.47a4 4 0 010-3.06c.64-.993 1.095-1.816 1.366-2.47.228-.551.522-1.536.88-2.955a4 4 0 012.165-2.164c1.375-.341 2.36-.635 2.955-.881.61-.254 1.434-.709 2.47-1.366a4 4 0 013.06 0z"/></svg><svg viewBox="0 0 18 18" id="date" xmlns="http://www.w3.org/2000/svg"><path d="M13.45 2.65h-9.6c-1.767 0-3.2 1.393-3.2 3.111v7.778c0 1.718 1.433 3.111 3.2 3.111h9.6c1.767 0 3.2-1.393 3.2-3.111V5.76c0-1.718-1.433-3.111-3.2-3.111zM5.45.65v3m6.4-3v3m-11.2 3h16"/></svg><svg viewBox="0 0 146 18" id="decor" xmlns="http://www.w3.org/2000/svg"><path d="M143.74 4.024c-1.808-1.862-4.806-3.101-8.997-3.72-3.279-.483-6.471-.39-9.575.279a51.21 51.21 0 00-9.116 2.88 96.617 96.617 0 00-8.853 4.28 166.863 166.863 0 01-8.788 4.476c-3.529 1.67-7.033 2.953-10.512 3.848-3.478.895-7.04 1.074-10.683.537-.755-.112-1.624-.327-2.605-.644.25-.104.492-.212.727-.324 1.915-.907 3.449-1.885 4.6-2.93 1.15-1.046 1.946-2.086 2.385-3.12.44-1.036.61-1.89.513-2.564-.141-.543-.32-.922-.538-1.141-.218-.219-.691-.274-1.419-.166-.486.071-.834.342-1.045.81a4.671 4.671 0 00-.393 1.466c-.05.508-.075.98-.073 1.419.002.438.007.687.015.749.098.674-.236 1.365-1.002 2.072-.765.707-1.71 1.363-2.831 1.966-.818.44-1.67.834-2.55 1.183a24.269 24.269 0 01-2.552-1.183c-1.121-.603-2.066-1.26-2.831-1.966-.766-.708-1.1-1.399-1.002-2.072.009-.061.014-.311.015-.75a13.95 13.95 0 00-.073-1.418 4.671 4.671 0 00-.392-1.465c-.212-.47-.56-.74-1.046-.811-.729-.108-1.202-.052-1.419.166-.218.218-.397.598-.537 1.141-.098.674.073 1.528.512 2.563.44 1.035 1.235 2.075 2.386 3.12 1.15 1.047 2.684 2.024 4.6 2.931.234.112.477.22.727.324-.981.316-1.851.532-2.606.644-3.643.536-7.204.358-10.683-.537s-6.983-2.178-10.511-3.848a166.21 166.21 0 01-8.789-4.476 96.655 96.655 0 00-8.853-4.28 51.21 51.21 0 00-9.115-2.88c-3.105-.67-6.297-.761-9.576-.279-4.19.618-7.189 1.858-8.997 3.72C.45 5.887-.272 8.074.091 10.586c.187 1.287.622 2.364 1.306 3.234a8.61 8.61 0 002.35 2.094c.883.526 1.818.89 2.809 1.087.99.199 1.849.243 2.577.136.365-.054.24-.16-.372-.32s-1.387-.484-2.326-.972c-.94-.487-1.872-1.147-2.799-1.98-.927-.834-1.492-1.956-1.696-3.364-.107-.735-.075-1.585.096-2.549.17-.963.52-1.876 1.045-2.735.527-.86 1.281-1.644 2.265-2.352.982-.708 2.203-1.17 3.66-1.385 3.218-.474 6.367-.36 9.445.345 3.08.703 6.157 1.72 9.234 3.05a118.07 118.07 0 019.257 4.501 94.966 94.966 0 009.583 4.501 62.28 62.28 0 0010.354 3.402c3.53.824 7.3.942 11.307.351 1.79-.264 3.394-.624 4.814-1.079 1.42.455 3.025.815 4.814 1.079 4.008.59 7.776.474 11.307-.351a62.276 62.276 0 0010.354-3.402 94.718 94.718 0 009.583-4.5 117.942 117.942 0 019.257-4.502c3.077-1.33 6.154-2.347 9.234-3.05 3.079-.704 6.227-.819 9.445-.344 1.458.215 2.678.676 3.66 1.385.983.707 1.738 1.492 2.265 2.351.527.86.875 1.772 1.045 2.736.17.964.203 1.813.096 2.549-.204 1.41-.769 2.53-1.696 3.363-.927.833-1.86 1.494-2.799 1.981-.939.487-1.714.81-2.326.971-.612.16-.737.268-.372.32.728.108 1.587.063 2.577-.135a8.822 8.822 0 002.809-1.087 8.59 8.59 0 002.35-2.094c.683-.87 1.119-1.948 1.306-3.234.363-2.513-.359-4.7-2.167-6.562h-.002z"/></svg><svg viewBox="0 0 15 17" id="delete" xmlns="http://www.w3.org/2000/svg"><path d="M9.825 6.039l-.294 7.384m-4.062 0L5.175 6.04m8.458-2.634c.29.043.579.088.867.136m-.867-.136l-.906 11.39a1.823 1.823 0 01-.607 1.214 1.945 1.945 0 01-1.297.491H4.177c-.48 0-.944-.175-1.297-.491a1.823 1.823 0 01-.607-1.213L1.367 3.405m12.266 0a42.052 42.052 0 00-2.951-.326m-9.315.326c-.29.042-.579.087-.867.135m.867-.135a42.06 42.06 0 012.951-.326m6.364 0v-.751c0-.969-.772-1.776-1.774-1.806a45.627 45.627 0 00-2.816 0 1.815 1.815 0 00-1.774 1.806v.751m6.364 0a42.99 42.99 0 00-6.364 0"/></svg><svg viewBox="0 0 16 19" id="fire" xmlns="http://www.w3.org/2000/svg"><path d="M4.599.2a1 1 0 00-1.557 1.089 3.5 3.5 0 01.057 1.795 3.45 3.45 0 01-.84 1.575c-.028.03-.053.06-.077.094-.596.817-3.96 5.6-.941 10.762l.03.049a7.73 7.73 0 002.917 2.602 7.6 7.6 0 003.772.829 8.06 8.06 0 003.986-.975 8.2 8.2 0 003.04-2.864c1.3-2.2 1.184-4.556.588-6.441-.583-1.848-1.68-3.414-2.607-4.102a1 1 0 00-1.594.757c-.067 1.43-.363 2.55-.794 3.43-.222-2.406-1.127-4.195-2.224-5.523C7.208 1.887 5.79.977 5.032.489A8.996 8.996 0 014.6.202L4.599.2z"/></svg><svg viewBox="0 0 19 19" id="info" xmlns="http://www.w3.org/2000/svg"><path d="M9.5 18.5a9 9 0 100-18 9 9 0 000 18zM9.5 13.5v-4m0-4h.01"/></svg><svg viewBox="0 0 22 22" id="link" xmlns="http://www.w3.org/2000/svg"><path d="M8.797 12.75c-1.506-1.511-1.37-4.1.303-5.778l4.848-4.866C15.621.426 18.198.29 19.705 1.8c1.507 1.51 1.37 4.1-.303 5.78l-2.424 2.433"/><path d="M12.705 8.75c1.506 1.512 1.37 4.1-.303 5.78l-2.424 2.432-2.424 2.433c-1.673 1.68-4.25 1.817-5.757.306-1.507-1.512-1.37-4.1.303-5.78l2.424-2.433"/></svg><svg viewBox="0 0 17 18" id="location" xmlns="http://www.w3.org/2000/svg"><path fill-rule="evenodd" clip-rule="evenodd" d="M15.65 7.792c0-3.915-3.442-7.142-7.5-7.142S.65 3.877.65 7.792c0 3.991 3.502 6.75 6.727 8.664a1.627 1.627 0 001.545 0c3.23-1.897 6.728-4.688 6.728-8.664zm-4.805 1.13c.146-.34.222-.704.222-1.071 0-.743-.308-1.455-.855-1.98a2.98 2.98 0 00-2.062-.82 2.98 2.98 0 00-2.062.82 2.745 2.745 0 00-.855 1.98c0 .367.076.732.222 1.071.147.34.362.649.633.909.27.26.592.466.946.607a3.023 3.023 0 002.232 0c.354-.141.675-.347.946-.607.271-.26.486-.569.633-.909z"/></svg><svg viewBox="0 0 12 12" id="max" xmlns="http://www.w3.org/2000/svg"><path fill-rule="evenodd" clip-rule="evenodd" d="M6.191 2.961c-1.57-.083-2.795 1.011-3.065 2.723-.224 1.417.173 3.144.512 3.231.144.037.49-.229.742-.467a.144.144 0 01.175-.019c.392.241.837.422 1.327.448 1.612.085 3.04-1.181 3.125-2.8C9.09 4.46 7.803 3.047 6.19 2.962zm-2.629 8.217a.15.15 0 00-.195.023c-.681.73-2.424 1.24-2.504.246 0-.78-.174-1.437-.366-2.16C.262 8.4 0 7.416 0 5.983 0 2.568 2.79 0 6.098 0S12 2.694 12 6.017c0 3.322-2.676 5.95-5.87 5.95-1.134 0-1.684-.16-2.568-.789z"/></svg><svg viewBox="0 0 18 14" id="next" xmlns="http://www.w3.org/2000/svg"><path d="M.65 6.65h16m0 0l-6-6m6 6l-6 6"/></svg><svg viewBox="0 0 10 16" id="ok" xmlns="http://www.w3.org/2000/svg"><path d="M9.849 8.593c-.233-.456-.89-.84-1.763-.192C6.896 9.313 5 9.313 5 9.313s-1.896 0-3.086-.912c-.873-.648-1.53-.264-1.763.192-.416.8.05 1.192 1.106 1.84.907.56 2.146.768 2.945.848l-.666.64c-.948.905-1.863 1.777-2.487 2.385-.374.368-.374.952 0 1.296l.117.128c.374.36.99.36 1.364 0L5 13.346c.956.904 1.863 1.776 2.495 2.384.374.36.982.36 1.364 0l.108-.128c.383-.344.383-.928 0-1.296L6.49 11.922l-.657-.649c.79-.072 2.012-.288 2.91-.84 1.057-.648 1.523-1.04 1.107-1.84zM5 2.056c1.148 0 2.08.896 2.08 1.993C7.08 5.153 6.147 6.04 5 6.04c-1.148 0-2.08-.888-2.08-1.992 0-1.097.932-1.993 2.08-1.993zm0 6.041c2.329 0 4.208-1.808 4.208-4.048a3.972 3.972 0 00-1.232-2.863A4.294 4.294 0 005 0a4.294 4.294 0 00-2.976 1.186A3.972 3.972 0 00.792 4.049c0 2.24 1.88 4.048 4.208 4.048z"/></svg><svg viewBox="0 0 17 18" id="phone" xmlns="http://www.w3.org/2000/svg"><path d="M2.243 7.354l2.2-2.347c.219-.237.373-.533.448-.856a1.968 1.968 0 00-.025-.979 25.292 25.292 0 01-.409-1.639C4.361 1.05 3.963.65 3.5.65H2.243C1.318.65.557 1.454.66 2.435c.772 7.46 6.325 13.383 13.318 14.206.92.108 1.673-.703 1.673-1.69V13.61c0-.493-.377-.898-.832-.987-.5-.104-.994-.24-1.478-.408a1.723 1.723 0 00-1.823.44l-2.151 2.296"/></svg><svg viewBox="0 0 18 14" id="prev" xmlns="http://www.w3.org/2000/svg"><path d="M16.65 6.65h-16m0 0l6-6m-6 6l6 6"/></svg><svg viewBox="0 0 11 9" id="telegram" xmlns="http://www.w3.org/2000/svg"><path d="M10.443.047c.039 0 .102.004.17.02a.493.493 0 01.193.086c.087.071.113.167.127.243.009.056.02.167.02.275l-.005.105c-.152 1.58-.812 5.415-1.147 7.186-.14.744-.412.966-.65.987-.28.026-.53-.065-.782-.212a5.404 5.404 0 01-.383-.252c-.13-.091-.266-.188-.41-.28-.445-.29-.793-.524-1.138-.756a81.824 81.824 0 00-1.122-.744c-.247-.16-.386-.3-.452-.424a.363.363 0 01-.01-.339c.05-.113.148-.228.273-.353.062-.063.13-.127.2-.194s.144-.137.216-.21c.073-.076.756-.694 1.43-1.323.337-.313.67-.63.923-.88.127-.126.233-.236.31-.32.038-.043.07-.08.093-.11a.468.468 0 00.028-.042.142.142 0 00.018-.04.28.28 0 00.002-.096.204.204 0 00-.065-.126h.001a.198.198 0 00-.134-.046.524.524 0 00-.116.016.211.211 0 00-.045.018l-.065.036a9.18 9.18 0 00-.223.137c-.19.12-.462.294-.818.527-.712.464-1.759 1.156-3.139 2.076-.399.272-.755.4-1.071.393a3.712 3.712 0 01-.718-.123 13.45 13.45 0 01-.844-.243C.79 4.936.511 4.86.315 4.767a.623.623 0 01-.213-.15.23.23 0 01-.053-.184c.009-.07.064-.152.186-.242.121-.088.3-.18.538-.273h.001a496.56 496.56 0 015.907-2.512C8.088.83 8.936.49 9.48.295c.544-.195.78-.245.962-.248z"/></svg><svg viewBox="0 0 18 18" id="ticket" xmlns="http://www.w3.org/2000/svg"><path d="M8.453 4.523l-.59-.59m2.163 2.162l-.394-.393m1.966 1.966l-.393-.394m2.162 2.162l-.59-.59m-.197-4.125a1.668 1.668 0 01-.086-2.265.139.139 0 00-.008-.187L10.91.69a.139.139 0 00-.197 0L8.201 3.203a.843.843 0 00-.204.33.845.845 0 01-.534.536.846.846 0 00-.33.204l-6.442 6.44a.139.139 0 000 .197l1.576 1.576a.138.138 0 00.188.008 1.668 1.668 0 012.351 2.351.138.138 0 00.008.188L6.39 16.61a.139.139 0 00.196 0l6.443-6.442a.845.845 0 00.204-.33.845.845 0 01.534-.536.844.844 0 00.33-.204l2.512-2.512a.139.139 0 000-.197l-1.576-1.576a.138.138 0 00-.188-.008 1.668 1.668 0 01-2.265-.083z"/></svg><svg viewBox="0 0 16 10" id="vk" xmlns="http://www.w3.org/2000/svg"><path fill-rule="evenodd" clip-rule="evenodd" d="M15.633.677c.11-.39 0-.677-.53-.677h-1.75c-.445 0-.65.248-.762.521 0 0-.89 2.283-2.15 3.766-.409.43-.594.567-.817.567-.11 0-.278-.137-.278-.528V.677C9.346.21 9.223 0 8.852 0H6.101a.432.432 0 00-.446.424c0 .443.63.546.696 1.795V4.93c0 .595-.102.703-.325.703-.593 0-2.037-2.293-2.893-4.918C2.967.206 2.799 0 2.35 0H.6C.1 0 0 .248 0 .521 0 1.01.593 3.43 2.763 6.63 4.21 8.815 6.247 10 8.102 10c1.112 0 1.25-.263 1.25-.716V7.63c0-.526.105-.631.458-.631.26 0 .704.137 1.743 1.19C12.74 9.44 12.935 10 13.603 10h1.75c.5 0 .75-.263.607-.783-.159-.517-.726-1.268-1.477-2.158-.408-.508-1.02-1.054-1.206-1.328-.26-.35-.185-.507 0-.819 0 0 2.133-3.161 2.355-4.235"/></svg></svg>